<?xml version="1.0" encoding="UTF-8" ?>
<svg xmlns="http://www.w3.org/2000/svg" version="1.0" width="309" height="263">
  <polyline points="131.16,126.84 132.48,127.8 132.48,129.6 86.4,156.24 84.84,153.6 131.16,126.84" />
  <polyline points="195.48,162.48 195.48,165.96 132.48,129.6 132.48,127.8 134.4,127.2 195.48,162.48" />
  <polyline points="143.64,52.08 151.32,57.6 160.68,56.64 134.4,127.2 132.48,127.8 131.16,126.84 143.64,52.08" />
  <polyline points="102.36,87.12 112.2,81.36 113.76,84 103.92,89.64 102.36,87.12" />
  <polyline points="107.28,95.52 117.12,89.76 118.56,92.4 108.84,98.04 107.28,95.52" />
  <polyline points="112.08,103.92 121.92,98.16 123.48,100.8 113.64,106.56 112.08,103.92" />
  <polyline points="117,112.32 126.84,106.56 128.28,109.2 118.44,114.96 117,112.32" />
  <polyline points="121.8,120.72 131.64,115.08 133.2,117.6 123.36,123.36 121.8,120.72" />
  <polyline points="201.36,218.4 198.36,218.4 198.36,161.64 201.36,161.64 201.36,218.4" />
  <polyline points="192.6,218.4 189.6,218.4 189.6,161.64 192.6,161.64 192.6,218.4" />
  <polyline points="241.8,135.72 243.36,138.36 195.48,165.96 195.48,162.48 241.8,135.72" />
  <polyline points="98.88,7.32 99.96,6.24 101.04,5.16 151.8,55.92 151.32,57.6 143.64,52.08 98.88,7.32" />
  <polyline points="221.16,37.32 221.52,38.76 222,40.2 160.68,56.64 151.32,57.6 151.8,55.92 221.16,37.32" />
  <g font-family="ArialMT" font-size="45">
    <text x="2" y="181">H</text>
    <text x="35" y="190" font-size="33">2</text>
    <text x="53" y="181">N</text>
    <text x="80" y="81">H</text>
    <text x="178" y="253">O</text>
    <text x="241" y="144">O</text>
    <text x="276" y="144">H</text>
  </g>
</svg>